<svg xmlns="http://www.w3.org/2000/svg" viewBox="0 0 256 256" preserveAspectRatio="xMidYMid meet">
  <defs>
    <linearGradient id="huntarrlogocolor">
      <stop stop-color="#000000"/>
    </linearGradient>
  </defs>
  <path fill="none" stroke="url(#huntarrlogocolor)" stroke-width="9.648" d="M244.569 128.793c0 63.941-51.835 115.776-115.776 115.776A115.775 115.775 0 1 1 244.57 128.793z"/>
  <g transform="translate(255 255.5)">
    <g fill="none" stroke-miterlimit="10" font-family="none" font-size="none" font-weight="none" style="mix-blend-mode:normal" text-anchor="none">
      <path fill="url(#huntarrlogocolor)" d="m239.811 61.92.318-.05c.24.963-6.716 14.459-7.787 16.245-2.193 3.651-4.617 7.578-7.34 10.85-1.773 2.132-3.887 4.023-5.863 5.966l-7.263 7.218-25.51 24.69c-.098-3.043-.268-9.086.366-11.903 1.373-2 4.4-4.405 6.214-6.202 1.253-1.26 2.514-2.636 3.887-3.762 2.024-2.381 4.573-4.489 6.788-6.715 6.96-6.998 14.138-13.754 20.56-21.265.695-1.485 2.155-3.07 3.218-4.306l-.278-.05c-1.034.754-1.97 1.744-2.906 2.622a289.388 289.388 0 0 0-6.652 6.473L200.395 98.75c-2.433 2.387-5.304 5.665-8.15 7.428a19.555 19.555 0 0 0-.553-3.541c-1.218-1.333-3.02-2.562-4.791-3.016l-.065-.3c.437-.732 1.175-1.323 1.785-1.914 4.264-4.212 8.768-8.24 13.14-12.347 4.521-4.25 8.966-8.63 13.398-12.973.611-.85 1.866-1.67 2.756-2.213 2.107-1.193 4.709-1.8 6.978-2.69 2.795-.636 5.925-2.332 8.755-3.228 2.004-.652 4.068-1.81 6.163-2.034z" transform="matrix(.603 0 0 .603 -203.27 -227.77)"/>
      <path fill="url(#huntarrlogocolor)" d="M57.175 61.08c2.823 1.346 5.687 2.53 8.532 3.814 2.945 1.33 5.842 2.763 8.795 4.08 2.443 1.09 7.076 2.797 9.12 4.353 2.525 1.924 2.832 7.742 4.807 10.446 1.48 2.028 3.534 3.697 5.334 5.432 2.076 2 4.053 4.114 6.116 6.132 2.031 1.988 4.239 3.93 6.075 6.097 1.96 2.313 1.46 4.69 2.832 7.075 1.124 1.954 3.044 3.488 4.416 5.292 1.34 2.309.572 4.929.94 7.458-2.4-1.733-4.779-4.158-6.739-6.388-5.6-5.882-11.35-11.579-17.052-17.362-1.308-1.326-6.951-7.454-8.147-8.044-.583-.288-1.34-.303-1.978-.402-1.057-.165-2.114-.391-3.173-.53-1.362-.177-2.908-.148-4.212-.558-.779-.244-1.261-.99-1.723-1.626-1.753-2.415-3.135-5.296-4.61-7.906-3.243-5.74-6.43-11.438-9.333-17.363z" transform="matrix(.603 0 0 .603 -233.42 -227.77)"/>
      <path fill="url(#huntarrlogocolor)" d="M92.631 196.542c.438.066.761.154 1.134.402 1.47.977 2.733 2.503 3.994 3.735 1.434 1.4 2.944 2.73 4.417 4.09a1091.26 1091.26 0 0 0-16.382 15.817c-1.72 1.697-4.968 4.555-6.317 6.261-1.52 1.924-1.604 4.676-3.29 6.82-1.45 1.843-3.676 3.014-5.987 3.3-.42.017-.84.026-1.257-.043-2.5-.41-4.831-1.93-6.272-4.007-1.206-1.737-1.951-3.899-1.52-6.019a9.164 9.164 0 0 1 2.266-4.347c1.945-2.05 4.688-2.732 6.747-4.565 2.286-2.036 4.411-4.352 6.576-6.52 2.662-2.667 5.398-5.256 8.084-7.898 2.465-2.424 4.93-5.085 7.807-7.026z" transform="matrix(.603 0 0 .603 -233.42 -203.65)"/>
      <path fill="url(#huntarrlogocolor)" d="M-180.025-95.267c.654.163 1.185.32 1.698.784.9.817 1.696 1.791 2.549 2.66l7.21 7.45a408.026 408.026 0 0 0 3.72 3.83c1.015 1.024 2.107 2.024 2.98 3.175.193.253.255.579.26.893.013.736-.462 1.287-.942 1.785l-.852.27a14.24 14.24 0 0 1-.278-.066c-.39-.098-.683-.227-.992-.49-1.733-1.458-3.809-3.912-5.44-5.58a582.892 582.892 0 0 1-7.482-7.683c-1.57-1.614-3.37-3.114-4.536-5.062.527-.986 1.01-1.617 2.105-1.966zm14.42-4.418c.262-.261.518-.531.794-.778-.083 1.813.075 3.743-.287 5.52a26.333 26.333 0 0 1-1.444 1.284c-.608.596-3.02 3.244-3.65 3.288-.651.045-1.535-.583-1.948-1.034-.228-.25-.549-.644-.565-.997a.917.917 0 0 1 .077-.383c.469-1.096 5.808-5.835 7.022-6.9z"/>
      <path fill="url(#huntarrlogocolor)" d="m-165.127-84.717.103.239c.803.492 2.09-.797 2.867-1.058.314-.105.734-.076 1.063-.077-.586.683-1.544 1.83-2.505 1.883-.435.024-1.429-.234-1.768-.509-.045-.036-.078-.083-.118-.123.076-.192.19-.247.358-.355z"/>
      <path fill="url(#huntarrlogocolor)" d="M-164.953-84.879a5.82 5.82 0 0 1 1.288-.971c.26.03.433.004.618.219.046.053.09.144.125.207-.03.01-.062.02-.092.032-.507.186-1.271.858-1.784.733z"/>
      <path fill="url(#huntarrlogocolor)" d="M-90.986-96.557c.12.01.237.015.343.078.786.462 3.878 3.809 4.733 4.666 4.825 4.836 9.508 9.803 14.23 14.74l6.794 7.213c.996 1.066 2.042 2.093 3.01 3.183.285.32 1.123 1.151 1.167 1.589.068.653-.94 1.748-1.338 2.265-.247.29-.585.655-.996.663-.313.005-.576-.186-.798-.382-1.591-1.4-3.08-3.232-4.604-4.737a423.342 423.342 0 0 1-7.979-7.954c-3.995-4.137-7.9-8.42-12.089-12.363.262-.561.504-1.123.538-1.75.102-1.84-1.67-3.349-2.778-4.635-.185-.85-.147-1.713-.232-2.575z"/>
      <path fill="url(#huntarrlogocolor)" d="M-75.695-66.477c-.23-1.097-.57-5.044-.27-6.04.225-.037.339.086.531.196.86.67 2.81 2.473 2.957 3.567.2 1.503.171 4.665.07 6.221-.868-.821-3.12-2.799-3.289-3.943zm4.797-1.562.101.128c2.06 2.57 3.583 2.294 3.34 6.243.042 1.288.052 2.49-.155 3.768-.406-.369-.836-.728-1.217-1.122a21.388 21.388 0 0 1-1.67-1.829c-.192-.585-.2-1.296-.201-1.91-.197-1.105-.085-2.4-.085-3.525-.096-.578-.094-1.17-.113-1.754zm-5.298-15.388c1.136-.01 5.922.486 6.812.845.325.13.591.31.856.538.362.31 2.357 2.39 2.498 2.726-.523.057-1.227-.122-1.772-.163-1.067-.078-2.137-.089-3.204-.154-.427-.027-.94-.06-1.334-.233-.954-.422-3.082-2.697-3.856-3.56zm5.184 5.557c2.072.208 4.162.048 6.239.31 1.69.394 2.767 2.278 3.947 3.427-1.288-.06-5.988-.094-6.888-.688-.887-.587-1.583-1.612-2.388-2.327zm-10.01-.28.08.1c.73.908 1.685 1.64 2.45 2.534.34.398.641.826.799 1.331.37 1.188.248 4.623.148 5.978-.938-.843-1.845-1.634-2.557-2.69-.97-1.235-.774-3.817-.735-5.343zm18.287 8.51c-.574-.51-2.701-2.497-3.05-3.046l.039-.116.195.048c1.544-.062 4.949.02 6.353.588 1.091.406 2.223 2.133 3.178 2.927-1.598.094-5.231-.041-6.715-.402z"/>
    </g>
    <path fill="url(#huntarrlogocolor)" d="M-138.082-160.431c-2.124 1.125-2.711 3.05-2.734 5.113-.076 7.074-.032 14.149-.064 21.223-.004.9.329 1.171 1.208 1.167 7.957-.04 15.915-.044 23.872-.057 1.003 0 2.015-.075 3.007.032 1.083.117 1.288-.373 1.285-1.307-.021-5.708-.004-11.415-.007-17.123 0-1.246-.01-2.492-.05-3.737-.114-3.479-1.602-5.273-4.994-6.137-.631-.16-1.49-.046-1.534-1.149-.06-1.515.01-1.652 1.543-1.652 8.28 0 16.56-.006 24.84.014.599.001 1.452-.334 1.52.81.06 1.006-.036 1.707-1.285 1.994-3.79.871-5.221 2.655-5.225 6.533a24399.4 24399.4 0 0 0 .007 56.674c.004 3.292 1.661 5.195 5.085 6.102.574.152 1.314.067 1.419.994.177 1.576-.01 1.821-1.604 1.821-8.24 0-16.48.007-24.72-.014-.595-.002-1.467.353-1.557-.774-.078-.972-.068-1.73 1.219-2.031 3.895-.914 5.275-2.656 5.293-6.604.036-8.039.001-16.078.037-24.117.005-1.097-.35-1.459-1.461-1.448-4.82.049-9.641.016-14.462.014-4.012 0-8.025.028-12.037-.018-1.039-.012-1.416.309-1.41 1.374.036 8.078.002 16.158.042 24.237.02 3.942 1.359 5.579 5.158 6.602.625.169 1.353.181 1.363 1.191.014 1.426-.068 1.586-1.523 1.586-8.16.002-16.32.016-24.478-.024-.664-.003-1.698.55-1.896-.794-.18-1.207.239-1.805 1.49-2.076 2.705-.585 4.568-2.125 4.936-5.039.106-.833.117-1.682.118-2.524.007-11.254.007-22.509.003-33.763-.002-7.235.024-14.47-.039-21.704-.03-3.533-1.606-5.356-5.058-6.213-.671-.166-1.45-.159-1.467-1.229-.024-1.476 0-1.572 1.498-1.572 8.32-.003 16.64-.004 24.96.007.596 0 1.365-.225 1.427.804.055.914.136 1.78-1.15 1.923-.88.097-1.704.45-2.576.89z"/>
  </g>
</svg>